<?xml version="1.0" encoding="utf-8"?>
<!-- Generator: Adobe Illustrator 16.0.0, SVG Export Plug-In . SVG Version: 6.00 Build 0)  -->
<!DOCTYPE svg PUBLIC "-//W3C//DTD SVG 1.1//EN" "http://www.w3.org/Graphics/SVG/1.1/DTD/svg11.dtd">
<svg version="1.1" id="圖層_1" xmlns="http://www.w3.org/2000/svg" xmlns:xlink="http://www.w3.org/1999/xlink" x="0px" y="0px"
	 width="820px" height="1018px" viewBox="0 0 820 1018" enable-background="new 0 0 820 1018" xml:space="preserve">
<g id="taiwan">
	
		<polygon fill="#C9C9C9" stroke="#FFFFFF" stroke-width="2" stroke-linecap="round" stroke-linejoin="round" stroke-miterlimit="10" stroke-dasharray="12" points="
		637.429,936.885 654.429,938.885 657.429,944.885 654.429,947.885 664.429,958.885 660.429,963.885 654.429,963.885 
		653.429,955.885 644.429,955.885 633.429,945.885 	"/>
	
		<path fill="#C9C9C9" stroke="#FFFFFF" stroke-width="2" stroke-linecap="round" stroke-linejoin="round" stroke-miterlimit="10" stroke-dasharray="12" d="
		M732.195,127.677l-9.768-2.791l-25,10l-1,9h-14l-2,12l-47,25l-3,21l-32,8l-15,30l1,9l-24,29l11,18h16l33,6.999l26,6l11-8
		l36.016,3.693c-0.011-0.57-0.016-1.138-0.016-1.693c0-7.999,12-21.999,16-27.999c0-4,1-11,7-18c0-6,5-24,5-24l-17-20c0,0-2-13-5-32
		C707.714,149.521,721.95,134.617,732.195,127.677z"/>
	
		<path fill="#C9C9C9" stroke="#FFFFFF" stroke-width="2" stroke-linecap="round" stroke-linejoin="round" stroke-miterlimit="10" stroke-dasharray="12" d="
		M739.138,123.756c-0.624,0.281-1.293,0.604-2.001,0.971C737.845,124.36,738.514,124.037,739.138,123.756z"/>
	
		<path fill="#C9C9C9" stroke="#FFFFFF" stroke-width="2" stroke-linecap="round" stroke-linejoin="round" stroke-miterlimit="10" stroke-dasharray="12" d="
		M742.416,122.456c-0.202,0.066-0.42,0.145-0.649,0.228C741.996,122.6,742.214,122.524,742.416,122.456z"/>
	
		<path fill="#C9C9C9" stroke="#FFFFFF" stroke-width="2" stroke-linecap="round" stroke-linejoin="round" stroke-miterlimit="10" stroke-dasharray="12" d="
		M740.089,123.34c-0.286,0.121-0.584,0.25-0.896,0.39C739.504,123.59,739.803,123.459,740.089,123.34z"/>
	
		<path fill="#C9C9C9" stroke="#FFFFFF" stroke-width="2" stroke-linecap="round" stroke-linejoin="round" stroke-miterlimit="10" stroke-dasharray="12" d="
		M741.702,122.706c-0.476,0.17-0.995,0.374-1.568,0.613C740.707,123.08,741.231,122.878,741.702,122.706z"/>
	
		<path fill="#C9C9C9" stroke="#FFFFFF" stroke-width="2" stroke-linecap="round" stroke-linejoin="round" stroke-miterlimit="10" stroke-dasharray="12" d="
		M743.491,122.122c-0.146,0.041-0.304,0.086-0.478,0.141C743.191,122.209,743.349,122.163,743.491,122.122z"/>
	
		<path fill="#C9C9C9" stroke="#FFFFFF" stroke-width="2" stroke-linecap="round" stroke-linejoin="round" stroke-miterlimit="10" stroke-dasharray="12" d="
		M743.006,122.266c-0.176,0.054-0.367,0.116-0.573,0.185C742.639,122.383,742.83,122.321,743.006,122.266z"/>
	
		<path fill="#C9C9C9" stroke="#FFFFFF" stroke-width="2" stroke-linecap="round" stroke-linejoin="round" stroke-miterlimit="10" stroke-dasharray="12" d="
		M743.904,122.01c-0.104,0.027-0.229,0.062-0.365,0.101C743.672,122.071,743.797,122.037,743.904,122.01z"/>
	
		<path fill="#C9C9C9" stroke="#FFFFFF" stroke-width="2" stroke-linecap="round" stroke-linejoin="round" stroke-miterlimit="10" stroke-dasharray="12" d="
		M744.361,121.899c-0.036,0.009-0.089,0.021-0.153,0.036C744.271,121.92,744.325,121.906,744.361,121.899z"/>
	
		<polygon fill="#C9C9C9" stroke="#FFFFFF" stroke-width="2" stroke-linecap="round" stroke-linejoin="round" stroke-miterlimit="10" stroke-dasharray="12" points="
		545.354,94.129 545.354,94.129 546.429,93.885 	"/>
	
		<path fill="#C9C9C9" stroke="#FFFFFF" stroke-width="2" stroke-linecap="round" stroke-linejoin="round" stroke-miterlimit="10" stroke-dasharray="12" d="
		M744.176,121.942c-0.074,0.02-0.161,0.039-0.267,0.066C744.015,121.981,744.102,121.959,744.176,121.942z"/>
	
		<path fill="#C9C9C9" stroke="#FFFFFF" stroke-width="2" stroke-linecap="round" stroke-linejoin="round" stroke-miterlimit="10" stroke-dasharray="12" d="
		M744.429,121.885c0,0-0.016,0.003-0.039,0.008C744.407,121.889,744.429,121.885,744.429,121.885z"/>
	
		<path fill="#C9C9C9" stroke="#FFFFFF" stroke-width="2" stroke-linecap="round" stroke-linejoin="round" stroke-miterlimit="10" stroke-dasharray="12" d="
		M735.923,125.379c-0.753,0.419-1.543,0.886-2.362,1.404C734.38,126.264,735.17,125.798,735.923,125.379z"/>
	
		<path fill="#C9C9C9" stroke="#FFFFFF" stroke-width="2" stroke-linecap="round" stroke-linejoin="round" stroke-miterlimit="10" stroke-dasharray="12" d="
		M737.052,124.77c-0.354,0.185-0.717,0.379-1.09,0.585C736.335,125.149,736.697,124.954,737.052,124.77z"/>
	
		<path fill="#C9C9C9" stroke="#FFFFFF" stroke-width="2" stroke-linecap="round" stroke-linejoin="round" stroke-miterlimit="10" stroke-dasharray="12" d="
		M733.436,126.862c-0.405,0.26-0.814,0.529-1.239,0.814l0,0C732.616,127.39,733.029,127.12,733.436,126.862z"/>
	
		<path fill="#C9C9C9" stroke="#FFFFFF" stroke-width="2" stroke-linecap="round" stroke-linejoin="round" stroke-miterlimit="10" stroke-dasharray="12" d="
		M743.535,122.11c-0.02,0.004-0.029,0.009-0.044,0.014C743.506,122.118,743.521,122.114,743.535,122.11z"/>
	
		<path fill="#C9C9C9" stroke="#FFFFFF" stroke-width="2" stroke-linecap="round" stroke-linejoin="round" stroke-miterlimit="10" stroke-dasharray="12" d="
		M743.909,122.009c-0.006,0-0.007,0-0.009,0.001C743.907,122.01,743.907,122.01,743.909,122.009z"/>
	
		<path fill="#C9C9C9" stroke="#FFFFFF" stroke-width="2" stroke-linecap="round" stroke-linejoin="round" stroke-miterlimit="10" stroke-dasharray="12" d="
		M744.204,121.935c-0.014,0.002-0.021,0.004-0.028,0.007C744.185,121.94,744.195,121.937,744.204,121.935z"/>
	
		<path fill="#C9C9C9" stroke="#FFFFFF" stroke-width="2" stroke-linecap="round" stroke-linejoin="round" stroke-miterlimit="10" stroke-dasharray="12" d="
		M694.292,319.414c0.041,0.464,0.071,0.83,0.099,1.08C694.366,320.243,694.333,319.878,694.292,319.414z"/>
	
		<path fill="#C9C9C9" stroke="#FFFFFF" stroke-width="2" stroke-linecap="round" stroke-linejoin="round" stroke-miterlimit="10" stroke-dasharray="12" d="
		M694.423,320.821c0.003,0.038,0.006,0.063,0.006,0.063S694.425,320.849,694.423,320.821z"/>
	
		<path fill="#C9C9C9" stroke="#FFFFFF" stroke-width="2" stroke-linecap="round" stroke-linejoin="round" stroke-miterlimit="10" stroke-dasharray="12" d="
		M694.392,320.505c0.013,0.114,0.021,0.208,0.026,0.271C694.412,320.713,694.403,320.621,694.392,320.505z"/>
	
		<path fill="#C9C9C9" stroke="#FFFFFF" stroke-width="2" stroke-linecap="round" stroke-linejoin="round" stroke-miterlimit="10" stroke-dasharray="12" d="
		M693.443,304.578L693.443,304.578c0.094,5.738,0.603,12.039,0.852,14.832C694.042,316.615,693.532,310.314,693.443,304.578z"/>
	
		<path fill="#C9C9C9" stroke="#FFFFFF" stroke-width="2" stroke-linecap="round" stroke-linejoin="round" stroke-miterlimit="10" stroke-dasharray="12" d="
		M694.418,320.777c0.003,0.025,0.003,0.028,0.005,0.044C694.421,320.807,694.42,320.796,694.418,320.777z"/>
	
		<path fill="#C9C9C9" stroke="#FFFFFF" stroke-width="2" stroke-linecap="round" stroke-linejoin="round" stroke-miterlimit="10" stroke-dasharray="12" d="
		M694.391,320.494c0.001,0.004,0.001,0.007,0.001,0.011C694.392,320.502,694.392,320.498,694.391,320.494z"/>
	
		<path fill="#C9C9C9" stroke="#FFFFFF" stroke-width="2" stroke-linecap="round" stroke-linejoin="round" stroke-miterlimit="10" stroke-dasharray="12" d="
		M694.291,319.409c0.001,0.001,0.001,0.003,0.001,0.005C694.292,319.413,694.292,319.411,694.291,319.409z"/>
	
		<path fill="#C9C9C9" stroke="#FFFFFF" stroke-width="2" stroke-linecap="round" stroke-linejoin="round" stroke-miterlimit="10" stroke-dasharray="12" d="
		M732.195,127.677l-9.768-2.791l-25,10l-1,9h-14l-2,12l-47,25l-3,21l-32,8l-15,30l1,9l-24,29l11,18h16l11.591,2.458l0.409-0.458
		l-0.409,0.458l21.409,4.541l26,6l11-8l36.016,3.693c-0.011-0.57-0.016-1.138-0.016-1.693c0-7.999,12-21.999,16-27.999
		c0-4,1-11,7-18c0-6,5-24,5-24l-17-20c0,0-2-13-5-32C707.714,149.521,721.95,134.618,732.195,127.677z"/>
	
		<path fill="#C9C9C9" stroke="#FFFFFF" stroke-width="2" stroke-linecap="round" stroke-linejoin="round" stroke-miterlimit="10" stroke-dasharray="12" d="
		M519.429,339.885l-7,9l-15,1v8l-15,8l-7-3l-9,7l-10-1l-10,11l-5-6h-9l-18.999,34c0,0-31-6-39-10l-9,7v10l8,6l-1,31l10,9h12l-4,11
		c0,0,0,0-8,4l3,4l-3,31l10,5l21-6l2,7l14.999,4l11,10l-2,7l13,17h17c0.563-0.111,0.941-0.094,1.172,0.033l33.828,0.967l9-18l19-8
		l3-10l11-7l9-40l-13-9l13-21l4-32v-15l12-21v-13l-33-5L519.429,339.885z"/>
	
		<path fill="#C9C9C9" stroke="#FFFFFF" stroke-width="2" stroke-linecap="round" stroke-linejoin="round" stroke-miterlimit="10" stroke-dasharray="12" d="
		M469.429,554.885l1.172,0.033C470.37,554.791,469.991,554.774,469.429,554.885z"/>
	
		<path fill="#C9C9C9" stroke="#FFFFFF" stroke-width="2" stroke-linecap="round" stroke-linejoin="round" stroke-miterlimit="10" stroke-dasharray="12" d="
		M279.429,720.885l29,6l16-4v-8h11l4-18l14-2l2-11l36-41l2-13h-14l-3-3l-7,6l-14-28v-12l-23-16l-8,3l-19-1l-31,28l-10,9
		l-27.099-5.748c-3.766,22.065-7.987,44.401-6.901,48.748c0,0,3,17,5,29c6.446,2.578,18.437,19.016,30.015,36.92l2.985-4.92
		L279.429,720.885z"/>
	
		<path fill="#C9C9C9" stroke="#FFFFFF" stroke-width="2" stroke-linecap="round" stroke-linejoin="round" stroke-miterlimit="10" stroke-dasharray="12" d="
		M462.429,878.885l-4-10l-7-6v-16l-12-38l13-38l27-15v-15l-14-19l-13-3l-13,8l-12-5l-8,5l-11-9l-19,3l-17,18h-18l-4,5l-2,54l3,9
		l2,11l-10.782,24.26c7.196,3.162,13.782,5.74,13.782,5.74l6-4l6,10c0,0,3,1,13,5c2,6,31,33,41,38c6,5,24,42,24,42l-5,19l24,33l5-10
		l25,16l1-37l6-14l-6-11c0,0-1.237-26.01-1.767-38.556l-27.233-5.444L462.429,878.885z"/>
	
		<path fill="#C9C9C9" stroke="#FFFFFF" stroke-width="2" stroke-linecap="round" stroke-linejoin="round" stroke-miterlimit="10" stroke-dasharray="12" d="
		M351.429,806.885l-3-9l2-54l4-5h18l17-18l19-3l11,9l8-5l12,5l13-8l13,3l-7-24v-10l7-8l5-51l16-21l21-13l-1.584-10.297l-0.416-2.703
		l-14-5v-9l16-4l-3-8l-33.828-0.967c1.815,0.987-5.961,8.868-12.172,15.967c-6,3-30,25-30,25l-27,15l-8,19l-2,13l-36,41l-2,11l-14,2
		l-4,18h-11v8l-16,4l-29-6l-11-1l-2.985,4.92c15.355,23.748,29.985,50.08,29.985,50.08l6,9l-3,6c0,0,21,38,28,44
		c3.254,2.324,9.966,5.514,16.218,8.26l10.782-24.26L351.429,806.885z"/>
	
		<path fill="#C9C9C9" stroke="#FFFFFF" stroke-width="2" stroke-linecap="round" stroke-linejoin="round" stroke-miterlimit="10" stroke-dasharray="12" d="
		M609.429,569.885c-3.333,5.334-5.334,8.666,0,10.666c-2,0.666-15.334,27.334-12.667,38.686c-8.667,0.688-10.667,22.648-10,31.314
		c-2,0-9.333-0.666-14,3.334c0-8.666-12-10-12-10s-6.667-18.666-7.333-23.32c-0.666-4.65-13.334,6.654-19.334-0.014
		c-21.334,0.666-17.333-24-19.333-28.666s-8.917-7.297-8.917-7.297l1.584,10.297l-21,13l-16,21l-5,51l-7,8v10l7,24l14,19v15l-27,15
		l-13,38l12,38v16l7,6l4,10l5,12l27.233,5.444c-0.146-3.395-0.233-5.811-0.233-6.444c0-3,2-30,2-30l9-8c0,0,10-40,11-52
		c11-10,53-71,53-71l2-14c0,0,7-2,14-3l38-67c0,0,0-13-3-24c3.363-2.689,11.249-33.426,16.054-53.267
		C625.311,544.297,612.623,560.303,609.429,569.885z"/>
	
		<path fill="#C9C9C9" stroke="#FFFFFF" stroke-width="2" stroke-linecap="round" stroke-linejoin="round" stroke-miterlimit="10" stroke-dasharray="12" d="
		M646.429,308.885l-26-6l-21.409-4.541l-24.591,27.541l8,34l-11,2v13l-12,21v15l-4,32l-13,21l13,9l-9,40l-11,7l-3,10l-19,8l-9,18
		l3,8l-16,4v9l14,5l0.416,2.703c0,0,6.917,2.631,8.917,7.297s-2.001,29.332,19.333,28.666c6,6.668,18.668-4.642,19.334,0.014
		s7.333,23.32,7.333,23.32s12,1.334,12,10c4.667-4,12-3.334,14-3.334c-0.667-8.666,1.333-30.629,10-31.314
		c-2.667-11.352,10.667-38.02,12.667-38.686c-5.334-2-3.333-5.332,0-10.666c3.194-9.584,15.882-25.588,27.054-2.267
		c2.339-9.657,3.946-16.733,3.946-16.733v-8c0,0,0-3-5-14c6-10,21-113,21-113s3-10,9-23c-5-17,5-40,5-40l-2-13l26-19
		c0,0-0.003-0.025-0.006-0.063c-0.002-0.017-0.002-0.02-0.005-0.044c-0.006-0.063-0.019-0.157-0.026-0.271
		c0-0.004,0-0.006-0.001-0.011c-0.021-0.25-0.058-0.615-0.099-1.079c0-0.001,0-0.004-0.001-0.006
		c-0.249-2.792-0.758-9.093-0.852-14.832l-36.012-3.693L646.429,308.885z"/>
	
		<path fill="#C9C9C9" stroke="#FFFFFF" stroke-width="2" stroke-linecap="round" stroke-linejoin="round" stroke-miterlimit="10" stroke-dasharray="12" d="
		M259.429,557.885l8-6v-6l6-3l9-1l11-15l2,4l28-16h20l13,11l25-1l28,1l6-9l-2-7l-21,6l-10-5l3-31l-3-4c-12,0-78-12-78-12l-23,7
		l-11.472-7.941c-8.176,1.772-24.528,47.942-24.528,47.942l-5,41c0,0,0.063,0.362,0.165,1.021l7.835,0.979L259.429,557.885z"/>
	
		<path fill="#C9C9C9" stroke="#FFFFFF" stroke-width="2" stroke-linecap="round" stroke-linejoin="round" stroke-miterlimit="10" stroke-dasharray="12" d="
		M274.429,606.885l31-28l19,1l8-3l23,16v12l14,28l7-6l3,3h14l8-19l27-15c0,0,24-22,30-25c6.211-7.099,13.987-14.979,12.172-15.967
		l-1.172-0.033h-17l-13-17l2-7l-11-10l-15-4l-6,9l-28-1l-25,1l-13-11h-20l-28,16l-2-4l-11,15l-9,1l-6,3v6l-8,6l-11-4l-7.835-0.979
		c0.324,2.035,1.079,6.938,1.835,12.979c0.914,7.311-1.931,25.688-5.099,44.252l27.099,5.748L274.429,606.885z"/>
	
		<path fill="#C9C9C9" stroke="#FFFFFF" stroke-width="2" stroke-linecap="round" stroke-linejoin="round" stroke-miterlimit="10" stroke-dasharray="12" d="
		M744.39,121.893c-0.011,0.002-0.013,0.002-0.027,0.006C744.372,121.897,744.382,121.895,744.39,121.893z"/>
	
		<path fill="#C9C9C9" stroke="#FFFFFF" stroke-width="2" stroke-linecap="round" stroke-linejoin="round" stroke-miterlimit="10" stroke-dasharray="12" d="
		M739.194,123.729c-0.02,0.008-0.038,0.018-0.058,0.026C739.157,123.746,739.176,123.737,739.194,123.729z"/>
	
		<path fill="#C9C9C9" stroke="#FFFFFF" stroke-width="2" stroke-linecap="round" stroke-linejoin="round" stroke-miterlimit="10" stroke-dasharray="12" d="
		M733.561,126.781c-0.042,0.026-0.083,0.055-0.125,0.079C733.479,126.836,733.519,126.809,733.561,126.781z"/>
	
		<path fill="#C9C9C9" stroke="#FFFFFF" stroke-width="2" stroke-linecap="round" stroke-linejoin="round" stroke-miterlimit="10" stroke-dasharray="12" d="
		M740.134,123.32c-0.015,0.007-0.028,0.013-0.045,0.021C740.104,123.332,740.119,123.326,740.134,123.32z"/>
	
		<path fill="#C9C9C9" stroke="#FFFFFF" stroke-width="2" stroke-linecap="round" stroke-linejoin="round" stroke-miterlimit="10" stroke-dasharray="12" d="
		M737.137,124.726c-0.027,0.016-0.057,0.029-0.085,0.044C737.08,124.756,737.108,124.74,737.137,124.726z"/>
	
		<path fill="#C9C9C9" stroke="#FFFFFF" stroke-width="2" stroke-linecap="round" stroke-linejoin="round" stroke-miterlimit="10" stroke-dasharray="12" d="
		M741.767,122.683c-0.021,0.007-0.043,0.015-0.062,0.022C741.724,122.698,741.745,122.69,741.767,122.683z"/>
	
		<path fill="#C9C9C9" stroke="#FFFFFF" stroke-width="2" stroke-linecap="round" stroke-linejoin="round" stroke-miterlimit="10" stroke-dasharray="12" d="
		M743.019,122.262c-0.004,0.001-0.009,0.002-0.013,0.004C743.01,122.265,743.015,122.263,743.019,122.262z"/>
	
		<path fill="#C9C9C9" stroke="#FFFFFF" stroke-width="2" stroke-linecap="round" stroke-linejoin="round" stroke-miterlimit="10" stroke-dasharray="12" d="
		M735.962,125.355c-0.014,0.007-0.026,0.016-0.039,0.022C735.936,125.37,735.95,125.363,735.962,125.355z"/>
	
		<path fill="#C9C9C9" stroke="#FFFFFF" stroke-width="2" stroke-linecap="round" stroke-linejoin="round" stroke-miterlimit="10" stroke-dasharray="12" d="
		M742.433,122.45c-0.006,0.002-0.011,0.004-0.017,0.006C742.422,122.454,742.427,122.452,742.433,122.45z"/>
	
		<path fill="#C9C9C9" stroke="#FFFFFF" stroke-width="2" stroke-linecap="round" stroke-linejoin="round" stroke-miterlimit="10" stroke-dasharray="12" d="
		M103.429,529.885v-8l-4,3l-2-5l-8.55,4.75l-3.568-12.883l-0.482,0.135l1.601-2.002l-5-3l1-9l-7-4l-10,10l1.8,3.602l-0.322-0.383
		l-6.867,5.782h-6.61l-3,13l-9,12l15-5l1-7l-1-8l7-5h-1.835l5.866-4.939l0.97,1.939l6-3l2,4l6,4l2.014-2.519l2.521,9.101
		l-7.536,9.418l-7-1l-3,5l4,2l7,6l-3,4c0,0-9-2-13-6c0,0,1,8,7,9c1,3,1,3,1,3l11-1l2-5l7-10h8l5,3l3-4L103.429,529.885z"/>
	
		<path fill="#C9C9C9" stroke="#FFFFFF" stroke-width="2" stroke-linecap="round" stroke-linejoin="round" stroke-miterlimit="10" stroke-dasharray="12" d="
		M108.429,338.885l-10-3l-7,9h-8l-10-8l-6,5c0,0,0.319,2.089,0.384,4.91h-7.078l0.694-1.91l-7-2l-2,7l5,6l3.124-8.59v0.5h7.27
		c-0.004,4.107-0.625,9.322-3.394,12.09c8,3,11,3,11,3l8-6h5l7,10l11-1l-5-14L108.429,338.885z"/>
	
		<path fill="#C9C9C9" stroke="#FFFFFF" stroke-width="2" stroke-linecap="round" stroke-linejoin="round" stroke-miterlimit="10" stroke-dasharray="12" d="
		M93.429,204.885c-6,0-23,6-23,6l-3.362-6.726l2.807-8.164l5.557-1.11h8h10v-7l-12-2l-13,3l-3,8l3.309-0.662l-2.297,6.684
		l-0.013-0.021l-9,5l8,9l10,8l8-1v-5l12-5l-4-3C91.429,210.885,99.429,204.885,93.429,204.885z"/>
	
		<path id="CHW" fill="#C9C9C9" stroke="#FFFFFF" stroke-width="2" stroke-linecap="round" stroke-linejoin="round" stroke-miterlimit="10" stroke-dasharray="12" d="
		M304.429,463.885c0,0,66,12,78,12c8-4,8-4,8-4l4-11h-12l-10-9l1-31l-8-6v-10l9-7c-4-9-33-29-33-29l-3-10h-8c0,10-37,60-37,60
		l-13,33c0,0-3,2-10,11c-0.153,0-0.312,0.022-0.472,0.059l11.472,7.941L304.429,463.885z"/>
	
		<path id="TXG" fill="#C9C9C9" stroke="#FFFFFF" stroke-width="2" stroke-linecap="round" stroke-linejoin="round" stroke-miterlimit="10" stroke-dasharray="12" d="
		M341.429,368.885c0,0,29,20,33,29c8,4,39,10,39,10l19-34h9l5,6l10-11l10,1l9-7l7,3l15-8v-8l15-1l7-9l19,17l33,5l11-2l-8-34
		l24.591-27.541l-11.591-2.458h-16l-11-18l-21,11l-3,9l-12,1l-12,8.999l-5,1l-7,10h-6l-4,3l-13,1l-10-5h-8l-13-1l-10-8l-33,11
		c0,0-31.784-18.541-39.767-24.926c-7.762,13.86-14.652,26.159-16.233,28.926c0,5-9,27-17,35h8L341.429,368.885z"/>
	
		<path id="ZMI" fill="#C9C9C9" stroke="#FFFFFF" stroke-width="2" stroke-linecap="round" stroke-linejoin="round" stroke-miterlimit="10" stroke-dasharray="12" d="
		M436.429,308.885l10,8l13,1h8l10,5l13-1l4-3h6l7-10l5-1l12-8.999l12-1l3-9l5-19l-19-22l-38-7l-26-24l-31.611-5.27l-11.389,16.27
		c0,0-10,5-17,9c0,8-12,12-12,12s-13.896,24.867-25.767,46.073c7.979,6.385,39.767,24.926,39.767,24.926L436.429,308.885z"/>
	
		<path id="HSZ" fill="#C9C9C9" stroke="#FFFFFF" stroke-width="2" stroke-linecap="round" stroke-linejoin="round" stroke-miterlimit="10" stroke-dasharray="12" d="
		M550.429,217.885l-4-29l-35-13l-4-8l-27-21l-17.096-3.419c-0.354,0.537-0.665,1.02-0.904,1.419
		c-3.018,0.604-11.493,14.313-17.745,25.096c-4.104,7.083-7.255,12.904-7.255,12.904s-1,17-5,25l-1.077,1.539l-1.534,2.192
		l31.611,5.269l26,24l38,7l19,22l-5,19l21-11l24-29C572.429,227.885,550.429,217.885,550.429,217.885z"/>
	
		<path id="TYH" fill="#C9C9C9" stroke="#FFFFFF" stroke-width="2" stroke-linecap="round" stroke-linejoin="round" stroke-miterlimit="10" stroke-dasharray="12" d="
		M507.429,167.885l4,8l35,13l4,29c0,0,22,10,34,31l-1-9l15-30l-13-24l-3-16h-22v-14l-11-8l1-14l9-2l11-7l-1-17l-24.075-13.757
		l-29.925,6.757l-28,21l-9,1c0,0-11.001,14.387-15.096,20.581l17.096,3.419L507.429,167.885z"/>
	
		<path id="NTPC" fill="#C9C9C9" stroke="#FFFFFF" stroke-width="2" stroke-linecap="round" stroke-linejoin="round" stroke-miterlimit="10" stroke-dasharray="12" d="
		M742.429,115.885c-13-3-21-14-27-23c-5.161,0-11.059-0.753-15.791-6.053l-5.209,4.053l-8-1l-7,3l5,10l6,2v7l-9,1l-23-6l-14-16l6-7
		h7l4.218-8.435c-0.432-0.189-0.845-0.38-1.218-0.565c-3-2-11-11-11-11l-13.42-1.388c1.5-7.5-11.999-20.999-11.999-20.999l-12,1.5
		c-3.419,0.113-32.581,21.887-32.581,21.887l-6,16l-27,13l-1.075,0.243l24.075,13.757l1,17l-11,7l-9,2l-1,14l11,8v14h22l3,16l13,24
		l32-8l3-21l47-25l2-12h14l1-9l25-10l9.768,2.791c0.425-0.285,0.834-0.556,1.239-0.814c0.043-0.024,0.084-0.053,0.125-0.078
		c0.819-0.52,1.609-0.985,2.362-1.404c0.013-0.008,0.025-0.017,0.039-0.022c0.373-0.207,0.731-0.4,1.09-0.585
		c0.028-0.015,0.058-0.028,0.085-0.044c0.708-0.366,1.377-0.688,2.001-0.971c0.021-0.01,0.038-0.02,0.058-0.026
		c0.313-0.14,0.607-0.271,0.896-0.39c0.017-0.007,0.03-0.013,0.045-0.021c0.573-0.239,1.099-0.441,1.568-0.613
		c0.021-0.009,0.043-0.017,0.062-0.022c0.229-0.083,0.447-0.159,0.649-0.228c0.006-0.002,0.011-0.004,0.017-0.006
		c0.206-0.067,0.397-0.131,0.573-0.185c0.004-0.001,0.009-0.003,0.013-0.004c0.174-0.055,0.329-0.101,0.478-0.141
		c0.015-0.004,0.025-0.009,0.044-0.014c0.137-0.039,0.263-0.072,0.367-0.101c0.003,0,0.005,0,0.007-0.001
		c0.104-0.027,0.188-0.05,0.267-0.066c0.011-0.002,0.021-0.005,0.028-0.007c0.064-0.016,0.12-0.028,0.155-0.036
		c0.018-0.003,0.02-0.004,0.025-0.006c0.023-0.005,0.039-0.008,0.039-0.008S744.429,121.885,742.429,115.885z M639.429,116.885l-8,9
		l7,9h-11l-12-6l-2-6l-2-6l-6,4l-2-11l3-4l-3-10l-8-3l1-9l15-15l7-4l9,5l2,7l5,7l-2,7l5,2l-1,11l10,13H639.429z"/>
	
		<polygon id="TPE" fill="#C9C9C9" stroke="#FFFFFF" stroke-width="2" stroke-linecap="round" stroke-linejoin="round" stroke-miterlimit="10" stroke-dasharray="12" points="
		637.429,92.885 632.429,90.885 634.429,83.885 629.429,76.885 627.429,69.885 618.429,64.885 611.429,68.885 596.429,83.885 
		595.429,92.885 603.429,95.885 606.429,105.885 603.429,109.885 605.429,120.885 611.429,116.885 613.429,122.885 615.429,128.885 
		627.429,134.885 638.429,134.885 631.429,125.885 639.429,116.885 646.429,116.885 636.429,103.885 	"/>
	
		<path id="KEL" fill="#C9C9C9" stroke="#FFFFFF" stroke-width="2" stroke-linecap="round" stroke-linejoin="round" stroke-miterlimit="10" stroke-dasharray="12" d="
		M650.429,83.885l-6,7l14,16l23,6l9-1v-7l-6-2l-5-10l7-3l8,1l5.209-4.053c-0.769-0.86-1.51-1.829-2.209-2.947
		c-6.674,0-26.972-4.544-35.782-8.435l-4.218,8.435H650.429z"/>
</g>
</svg>
