<svg class="img-fluid img-fullheight text-though" version="1.1" xmlns="http://www.w3.org/2000/svg" xmlns:xlink="http://www.w3.org/1999/xlink" x="0px" y="0px" width="820px" height="1018px" viewBox="0 0 820 1018" enable-background="new 0 0 820 1018" xml:space="preserve">
<g><path class="leaflet-interactive" stroke="white" stroke-opacity="1" stroke-width="1" stroke-linecap="round" stroke-linejoin="round" stroke-dasharray="3" fill="#C53030" fill-opacity="0.7" fill-rule="evenodd" d="M485 30L487 31L486 34L491 42L490 44L492 48L488 50L488 55L482 52L481 49L479 50L478 47L480 44L478 41L475 40L479 34z"></path><path class="leaflet-interactive" stroke="white" stroke-opacity="1" stroke-width="1" stroke-linecap="round" stroke-linejoin="round" stroke-dasharray="3" fill="#ECC94B" fill-opacity="0.7" fill-rule="evenodd" d="M402 228L401 232L398 234L394 242L384 251L381 258L377 258L375 261L368 259L359 259L357 252L346 243L353 216L362 221L367 215L375 210L382 209L385 210L391 218L390 226L395 228z"></path><path class="leaflet-interactive" stroke="white" stroke-opacity="1" stroke-width="1" stroke-linecap="round" stroke-linejoin="round" stroke-dasharray="3" fill="#F6E05E" fill-opacity="0.7" fill-rule="evenodd" d="M501 34L507 37L506 39L502 40L504 43L500 45L493 41L491 36L498 33z"></path><path class="leaflet-interactive" stroke="white" stroke-opacity="1" stroke-width="1" stroke-linecap="round" stroke-linejoin="round" stroke-dasharray="3" fill="#FAF089" fill-opacity="0.7" fill-rule="evenodd" d="M382 199L388 201L388 205L386 204L383 206L379 204L378 201z"></path><path class="leaflet-interactive" stroke="white" stroke-opacity="1" stroke-width="1" stroke-linecap="round" stroke-linejoin="round" stroke-dasharray="3" fill="#F56565" fill-opacity="0.7" fill-rule="evenodd" d="M359 259L360 258L375 261L377 258L381 258L384 251L394 242L398 234L401 232L402 221L406 222L407 220L418 213L420 208L425 205L430 203L434 204L436 209L432 214L437 217L436 221L432 222L426 227L426 232L422 235L423 241L421 249L417 256L419 261L421 262L421 265L417 264L414 266L409 262L404 264L401 261L394 266L386 266L382 283L383 291L381 302L371 295L366 288L365 284L368 281L360 266z"></path><path class="leaflet-interactive" stroke="white" stroke-opacity="1" stroke-width="1" stroke-linecap="round" stroke-linejoin="round" stroke-dasharray="3" fill="#38A169" fill-opacity="0.7" fill-rule="evenodd" d="M194 108L190 112L186 110L189 108L187 104L189 102L194 105L196 100L199 98L203 103L203 108L200 110L196 107zM185 108L181 110L182 106z"></path><path class="leaflet-interactive" stroke="white" stroke-opacity="1" stroke-width="1" stroke-linecap="round" stroke-linejoin="round" stroke-dasharray="3" fill="#ECC94B" fill-opacity="0.7" fill-rule="evenodd" d="M401 172L393 170L389 171L381 168L371 169L365 166L369 163L372 157L370 156L378 143L382 142L382 139L377 141L383 135L385 135L387 131L389 132L391 138L398 140L400 147L404 149L401 151L399 166L401 169L404 169L403 171z"></path><path class="leaflet-interactive" stroke="white" stroke-opacity="1" stroke-width="1" stroke-linecap="round" stroke-linejoin="round" stroke-dasharray="3" fill="#38A169" fill-opacity="0.7" fill-rule="evenodd" d="M306 171L306 171zM306 171L306 171zM306 172L306 172zM307 172L307 172zM307 173L307 173zM307 173L307 173zM307 173L307 173zM307 173L307 173zM306 174L306 174zM307 174L306 174zM307 177L307 177zM307 177L307 177zM307 179L307 179zM281 218L281 218zM315 195L310 195L307 197L307 200L304 200L306 195L303 195L303 192L306 193L307 191L304 185L302 185L299 188L298 194L296 191L298 186L300 187L302 184L305 183L308 193L311 190z"></path><path class="leaflet-interactive" stroke="white" stroke-opacity="1" stroke-width="1" stroke-linecap="round" stroke-linejoin="round" stroke-dasharray="3" fill="#ECC94B" fill-opacity="0.7" fill-rule="evenodd" d="M375 317L378 314zM407 343L408 340L401 319L394 311L381 302L383 291L382 283L386 266L394 266L401 261L404 264L409 262L414 266L417 264L421 265L422 268L425 270L423 278L420 278L415 281L412 286L410 294L412 300L411 302L414 306L410 312L414 315L413 319L415 322L421 325L424 324L425 345L419 350L421 358L411 353L409 356L405 345z"></path><path class="leaflet-interactive" stroke="white" stroke-opacity="1" stroke-width="1" stroke-linecap="round" stroke-linejoin="round" stroke-dasharray="3" fill="#F6E05E" fill-opacity="0.7" fill-rule="evenodd" d="M348 201L345 203L344 206L342 204L350 198zM409 189L409 193L404 193L402 191L394 192L387 187L381 189L379 188L367 197L365 196L365 199L363 200L356 198L355 189L359 180L359 171L363 166L371 169L381 168L389 171L393 170L401 172L402 176L400 187L404 189L408 188z"></path><path class="leaflet-interactive" stroke="white" stroke-opacity="1" stroke-width="1" stroke-linecap="round" stroke-linejoin="round" stroke-dasharray="3" fill="#38A169" fill-opacity="0.7" fill-rule="evenodd" d="M0 0"></path><path class="leaflet-interactive" stroke="white" stroke-opacity="1" stroke-width="1" stroke-linecap="round" stroke-linejoin="round" stroke-dasharray="3" fill="#38A169" fill-opacity="0.7" fill-rule="evenodd" d="M457 260L457 259zM451 267L451 267zM480 285L476 282L480 284zM472 228L470 229L470 237L472 238L466 241L462 253L455 263L451 265L451 271L449 275L437 283L424 316L424 324L421 325L415 322L413 319L414 315L410 312L414 306L411 302L412 300L410 294L412 286L415 281L420 278L423 278L424 276L425 270L422 268L421 262L419 261L417 256L421 249L423 241L422 235L426 232L426 227L437 220L441 227L446 228L446 230L451 230L453 235L457 237L458 240L463 237L468 220L472 214L470 212L474 207L479 207L476 218L473 221zM480 340L485 340L485 343L488 346L487 348L480 344z"></path><path class="leaflet-interactive" stroke="white" stroke-opacity="1" stroke-width="1" stroke-linecap="round" stroke-linejoin="round" fill="#9AE6B4" fill-opacity="0.7" fill-rule="evenodd" d="M457 108L454 112L453 111L449 115L446 115L442 119L440 118L438 121L435 118L426 117L425 121L419 122L416 119L407 115L399 107L403 103L408 90L417 84L423 77L431 80L430 82L441 92L439 95L441 98L440 101L453 99L458 105z" stroke-dasharray="3"></path><path class="leaflet-interactive" stroke="white" stroke-opacity="1" stroke-width="1" stroke-linecap="round" stroke-linejoin="round" fill="#E53E3E" fill-opacity="0.7" fill-rule="evenodd" d="M459 39L465 44L469 45L471 49L468 53L463 53L463 61L466 63L465 66L471 67L475 72L472 75L477 83L473 90L470 92L467 91L466 84L461 81L462 75L448 67L448 63L439 60L437 56L432 57L438 47L453 40z" stroke-dasharray="3"></path><path class="leaflet-interactive" stroke="white" stroke-opacity="1" stroke-width="1" stroke-linecap="round" stroke-linejoin="round" fill="#E53E3E" fill-opacity="0.7" fill-rule="evenodd" d="M477 83L472 75L475 72L471 67L465 66L466 63L463 61L463 53L468 53L471 49L469 45L465 44L459 39L467 37L471 34L474 26L482 20L487 21L491 24L495 30L497 29L498 33L491 36L494 41L502 45L504 44L502 40L506 39L507 37L517 39L518 47L525 49L522 52L511 55L511 58L503 65L500 65L496 69L491 70L488 73L488 78L482 82zM482 52L485 54L488 53L489 49L494 48L490 46L490 41L488 39L489 37L487 31L485 30L480 33L475 40L480 43L478 50L481 49z" stroke-dasharray="3"></path><path class="leaflet-interactive" stroke="white" stroke-opacity="1" stroke-width="1" stroke-linecap="round" stroke-linejoin="round" fill="#F56565" fill-opacity="0.7" fill-rule="evenodd" d="M391 119L391 119zM391 119L391 119zM399 107L407 115L416 119L419 122L425 121L426 117L435 118L438 121L440 118L442 119L446 115L449 115L453 111L454 112L457 108L462 107L464 111L468 114L475 114L473 119L465 128L459 128L457 126L456 128L449 128L446 131L443 131L438 135L435 135L433 139L419 139L418 143L411 150L400 147L398 140L391 138L389 132L385 129L388 121L392 120L394 114z" stroke-dasharray="3"></path><path class="leaflet-interactive" stroke="white" stroke-opacity="1" stroke-width="1" stroke-linecap="round" stroke-linejoin="round" fill="#9AE6B4" fill-opacity="0.7" fill-rule="evenodd" d="M402 228L395 228L390 226L391 218L389 214L382 209L375 210L367 215L362 221L360 221L353 216L357 212L355 206L357 201L354 201L354 199L356 198L363 200L365 199L365 196L367 197L379 188L381 189L387 187L394 192L402 191L404 193L409 193L409 189L418 192L416 196L418 203L430 203L420 208L418 213L407 220L406 222L402 221L401 224zM379 204L382 204L383 206L389 203L387 200L384 199L378 201z" stroke-dasharray="3"></path><path class="leaflet-interactive" stroke="white" stroke-opacity="1" stroke-width="1" stroke-linecap="round" stroke-linejoin="round" fill="#ECC94B" fill-opacity="0.7" fill-rule="evenodd" d="M428 65L435 70L436 75L433 73L429 76L428 79L423 77L426 66z" stroke-dasharray="3"></path><path class="leaflet-interactive" stroke="white" stroke-opacity="1" stroke-width="1" stroke-linecap="round" stroke-linejoin="round" fill="#F6E05E" fill-opacity="0.7" fill-rule="evenodd" d="M432 57L437 56L439 60L448 63L448 67L462 75L461 81L466 84L467 91L470 92L470 98L465 102L462 107L457 108L458 105L453 99L440 101L441 98L439 95L441 92L430 82L431 80L428 79L429 76L433 73L436 75L435 70L428 65L431 59z" stroke-dasharray="3"></path><path class="leaflet-interactive" stroke="white" stroke-opacity="1" stroke-width="1" stroke-linecap="round" stroke-linejoin="round" fill="#9AE6B4" fill-opacity="0.7" fill-rule="evenodd" d="M513 97L510 99L511 102L506 108L504 119L498 118L490 114L491 117L488 118L478 116L472 113L468 114L464 111L462 107L465 102L470 98L470 92L473 90L475 85L488 78L488 73L491 70L496 69L500 65L503 65L511 58L511 55L522 52L519 53L509 64L508 73L510 85L514 91z" stroke-dasharray="3"></path><path class="leaflet-interactive" stroke="white" stroke-opacity="1" stroke-width="1" stroke-linecap="round" stroke-linejoin="round" fill="#38A169" fill-opacity="0.7" fill-rule="evenodd" d="M436 221L437 217L432 214L436 209L435 207L438 205L437 203L440 199L446 199L448 192L453 191L454 188L456 180L455 176L452 174L459 160L459 154L457 152L460 145L463 143L463 139L460 137L460 133L465 131L465 128L473 119L475 114L488 119L491 117L490 114L498 118L504 119L500 126L494 131L494 138L490 142L490 145L493 150L489 155L488 164L480 195L479 207L474 207L470 212L472 214L468 220L463 237L458 240L457 237L453 235L451 230L446 230L446 228L441 227L437 220z" stroke-dasharray="3"></path><path class="leaflet-interactive" stroke="white" stroke-opacity="1" stroke-width="1" stroke-linecap="round" stroke-linejoin="round" fill="#9AE6B4" fill-opacity="0.7" fill-rule="evenodd" d="M465 128L465 131L460 133L460 137L463 139L463 143L460 145L457 152L459 154L459 160L452 174L455 176L456 180L453 191L448 192L446 199L440 199L437 203L438 205L435 207L434 204L430 203L418 203L416 196L418 192L412 189L404 189L400 187L402 176L401 172L404 169L401 169L399 166L401 151L404 149L411 150L418 143L419 139L433 139L435 135L438 135L449 128L456 128L457 126L459 128z" stroke-dasharray="3"></path></g></svg>